<?xml version="1.0" encoding="UTF-8"?>
<svg xmlns="http://www.w3.org/2000/svg" viewBox="-117 -20 234 424">
  <defs>
    <marker id="arrowhead" markerWidth="10" markerHeight="10" refX="9" refY="3" orient="auto">
      <polygon points="0 0, 10 3, 0 6" fill="#666" />
    </marker>
  </defs>

  <!-- Edges -->
  <polyline points="0,36 61,116" fill="none" stroke="#666" stroke-width="1.5" marker-end="url(#arrowhead)" />
  <polyline points="0,36 -61,116" fill="none" stroke="#666" stroke-width="1.5" marker-end="url(#arrowhead)" />
  <polyline points="-61,152 -61,232" fill="none" stroke="#666" stroke-width="1.5" marker-end="url(#arrowhead)" />
  <polyline points="-61,152 61,232" fill="none" stroke="#666" stroke-width="1.5" marker-end="url(#arrowhead)" />
  <polyline points="-61,268 0,348" fill="none" stroke="#666" stroke-width="1.5" marker-end="url(#arrowhead)" />
  <polyline points="61,268 61,232" fill="none" stroke="#666" stroke-width="1.5" marker-start="url(#arrowhead)" />

  <!-- Nodes -->
  <g>
    <rect x="-36" y="0" width="72" height="36" fill="#fff" stroke="#333" stroke-width="2" rx="4" />
    <text x="0" y="22.666666666666668" text-anchor="middle" fill="#000" font-size="14" font-family="Arial, sans-serif">0</text>
  </g>
  <g>
    <rect x="-97" y="116" width="72" height="36" fill="#fff" stroke="#333" stroke-width="2" rx="4" />
    <text x="-61" y="138.66666666666666" text-anchor="middle" fill="#000" font-size="14" font-family="Arial, sans-serif">2</text>
  </g>
  <g>
    <rect x="25" y="116" width="72" height="36" fill="#fff" stroke="#333" stroke-width="2" rx="4" />
    <text x="61" y="138.66666666666666" text-anchor="middle" fill="#000" font-size="14" font-family="Arial, sans-serif">1</text>
  </g>
  <g>
    <rect x="-97" y="232" width="72" height="36" fill="#fff" stroke="#333" stroke-width="2" rx="4" />
    <text x="-61" y="254.66666666666666" text-anchor="middle" fill="#000" font-size="14" font-family="Arial, sans-serif">3</text>
  </g>
  <g>
    <rect x="25" y="232" width="72" height="36" fill="#fff" stroke="#333" stroke-width="2" rx="4" />
    <text x="61" y="254.66666666666666" text-anchor="middle" fill="#000" font-size="14" font-family="Arial, sans-serif">4</text>
  </g>
  <g>
    <rect x="-36" y="348" width="72" height="36" fill="#fff" stroke="#333" stroke-width="2" rx="4" />
    <text x="0" y="370.6666666666667" text-anchor="middle" fill="#000" font-size="14" font-family="Arial, sans-serif">5</text>
  </g>
</svg>
